<?xml version="1.0" encoding="UTF-8" standalone="no"?>
<svg
   xmlns:dc="http://purl.org/dc/elements/1.1/"
   xmlns:cc="http://creativecommons.org/ns#"
   xmlns:rdf="http://www.w3.org/1999/02/22-rdf-syntax-ns#"
   xmlns:svg="http://www.w3.org/2000/svg"
   xmlns="http://www.w3.org/2000/svg"
   xmlns:sodipodi="http://sodipodi.sourceforge.net/DTD/sodipodi-0.dtd"
   xmlns:inkscape="http://www.inkscape.org/namespaces/inkscape"
   width="100%"
   height="100%"
   viewBox="0 0 32 32"
   version="1.1"
   xml:space="preserve"
   style="fill-rule:evenodd;clip-rule:evenodd;stroke-linecap:round;stroke-linejoin:round;stroke-miterlimit:1.5;"
   id="svg51"
   sodipodi:docname="ferris_ice.svg"
   inkscape:version="0.92.2 (5c3e80d, 2017-08-06)"><metadata
     id="metadata57"><rdf:RDF><cc:Work
         rdf:about=""><dc:format>image/svg+xml</dc:format><dc:type
           rdf:resource="http://purl.org/dc/dcmitype/StillImage" /><dc:title /></cc:Work></rdf:RDF></metadata><defs
     id="defs55" /><sodipodi:namedview
     pagecolor="#ffffff"
     bordercolor="#666666"
     borderopacity="1"
     objecttolerance="10"
     gridtolerance="10"
     guidetolerance="10"
     inkscape:pageopacity="0"
     inkscape:pageshadow="2"
     inkscape:window-width="1920"
     inkscape:window-height="1017"
     id="namedview53"
     showgrid="false"
     showguides="false"
     inkscape:zoom="7.375"
     inkscape:cx="6.815223"
     inkscape:cy="20.979689"
     inkscape:window-x="-8"
     inkscape:window-y="-8"
     inkscape:window-maximized="1"
     inkscape:current-layer="g49" /><rect
     id="ferris"
     x="0"
     y="0"
     width="32"
     height="32"
     style="fill:none;" /><clipPath
     id="_clip1"><rect
       x="0"
       y="0"
       width="32"
       height="32"
       id="rect3" /></clipPath><g
     clip-path="url(#_clip1)"
     id="g49"><g
       id="Layer1"><path
         d="M2,7.281c0,-0.308 0.142,-0.599 0.385,-0.788c0.242,-0.19 0.559,-0.257 0.858,-0.182c0.544,0.136 1.177,0.294 1.699,0.425c0.631,0.157 1.291,-0.109 1.636,-0.661c0.42,-0.671 0.984,-1.574 1.392,-2.227c0.141,-0.225 0.365,-0.385 0.623,-0.444c0.259,-0.06 0.53,-0.015 0.755,0.126c0.625,0.391 1.479,0.924 2.14,1.338c0.592,0.37 1.362,0.282 1.856,-0.212c0.596,-0.596 1.386,-1.386 1.949,-1.949c0.39,-0.39 1.024,-0.39 1.414,0c0.563,0.563 1.353,1.353 1.949,1.949c0.494,0.494 1.264,0.582 1.856,0.212c0.661,-0.414 1.515,-0.947 2.14,-1.338c0.225,-0.141 0.496,-0.186 0.755,-0.126c0.258,0.059 0.482,0.219 0.623,0.444c0.408,0.653 0.972,1.556 1.392,2.227c0.345,0.552 1.005,0.818 1.636,0.661c0.522,-0.131 1.155,-0.289 1.699,-0.425c0.299,-0.075 0.616,-0.008 0.858,0.182c0.243,0.189 0.385,0.48 0.385,0.788l0,15.719c0,3.866 -3.134,7 -7,7c-1.68,0 -3,0 -3,0c0,0 0,-0.475 0,-1.158c0,-1.152 0.357,-2.229 0.972,-3.118c-3.291,0.551 -6.653,0.551 -9.944,0c0.615,0.889 0.972,1.966 0.972,3.118c0,0.683 0,1.158 0,1.158c0,0 -1.32,0 -3,0c-3.866,0 -7,-3.134 -7,-7l0,-15.719Z"
         style="fill:none;stroke:#000;stroke-width:4px;"
         id="path6" /></g><g
       id="emoji"><g
         id="g38"><path
           d="M11.488,4.868c0.592,0.37 1.362,0.282 1.856,-0.212c0.596,-0.596 1.386,-1.386 1.949,-1.949c0.39,-0.39 1.024,-0.39 1.414,0c0.563,0.563 1.353,1.353 1.949,1.949c0.494,0.494 1.264,0.582 1.856,0.212c0.661,-0.414 1.515,-0.947 2.14,-1.338c0.225,-0.141 0.496,-0.186 0.755,-0.126c0.258,0.059 0.482,0.219 0.623,0.444c0.408,0.653 0.972,1.556 1.392,2.227c0.345,0.552 1.005,0.818 1.636,0.661c0.522,-0.131 1.155,-0.289 1.699,-0.425c0.299,-0.075 0.616,-0.008 0.858,0.182c0.243,0.189 0.385,0.48 0.385,0.788l0,15.719c0,0 -1.678,0.599 -3.873,1.383c-6.549,2.339 -13.705,2.339 -20.254,0c-2.195,-0.784 -3.873,-1.383 -3.873,-1.383l0,-12c0,0 0,-2.238 0,-3.719c0,-0.308 0.142,-0.599 0.385,-0.788c0.242,-0.19 0.559,-0.257 0.858,-0.182c0.544,0.136 1.177,0.294 1.699,0.425c0.631,0.157 1.291,-0.109 1.636,-0.661c0.42,-0.671 0.984,-1.574 1.392,-2.227c0.141,-0.225 0.365,-0.385 0.623,-0.444c0.259,-0.06 0.53,-0.015 0.755,0.126c0.625,0.391 1.479,0.924 2.14,1.338Z"
           style="fill:#1cc2ef;fill-opacity:1"
           id="path9" /><clipPath
           id="_clip2"><path
             d="M11.488,4.868c0.592,0.37 1.362,0.282 1.856,-0.212c0.596,-0.596 1.386,-1.386 1.949,-1.949c0.39,-0.39 1.024,-0.39 1.414,0c0.563,0.563 1.353,1.353 1.949,1.949c0.494,0.494 1.264,0.582 1.856,0.212c0.661,-0.414 1.515,-0.947 2.14,-1.338c0.225,-0.141 0.496,-0.186 0.755,-0.126c0.258,0.059 0.482,0.219 0.623,0.444c0.408,0.653 0.972,1.556 1.392,2.227c0.345,0.552 1.005,0.818 1.636,0.661c0.522,-0.131 1.155,-0.289 1.699,-0.425c0.299,-0.075 0.616,-0.008 0.858,0.182c0.243,0.189 0.385,0.48 0.385,0.788l0,15.719c0,0 -1.678,0.599 -3.873,1.383c-6.549,2.339 -13.705,2.339 -20.254,0c-2.195,-0.784 -3.873,-1.383 -3.873,-1.383l0,-12c0,0 0,-2.238 0,-3.719c0,-0.308 0.142,-0.599 0.385,-0.788c0.242,-0.19 0.559,-0.257 0.858,-0.182c0.544,0.136 1.177,0.294 1.699,0.425c0.631,0.157 1.291,-0.109 1.636,-0.661c0.42,-0.671 0.984,-1.574 1.392,-2.227c0.141,-0.225 0.365,-0.385 0.623,-0.444c0.259,-0.06 0.53,-0.015 0.755,0.126c0.625,0.391 1.479,0.924 2.14,1.338Z"
             id="path11" /></clipPath><g
           clip-path="url(#_clip2)"
           id="g18"><path
             d="M20,30c0,0 0,-0.475 0,-1.158c0,-2.766 2.06,-5.099 4.804,-5.443c1.699,-0.212 3.196,-0.399 3.196,-0.399l4,-8c0,0 0,4.091 0,8c0,1.857 -0.738,3.637 -2.05,4.95c-1.313,1.313 -3.093,2.05 -4.95,2.05c-2.632,0 -5,0 -5,0Z"
             style="fill:none;stroke:#0f80b8;stroke-width:4px;stroke-linecap:square;stroke-opacity:1"
             id="path14" /><path
             d="M12,30c0,0 0,-0.475 0,-1.158c0,-2.766 -2.06,-5.099 -4.804,-5.443c-1.699,-0.212 -3.196,-0.399 -3.196,-0.399l-4,-8c0,0 0,4.091 0,8c0,1.857 0.738,3.637 2.05,4.95c1.313,1.313 3.093,2.05 4.95,2.05c2.632,0 5,0 5,0Z"
             style="fill:none;stroke:#0f80b8;stroke-width:4px;stroke-linecap:square;stroke-opacity:1"
             id="path16" /></g><path
           d="M20,30c0,0 0,-0.475 0,-1.158c0,-2.766 2.06,-5.099 4.804,-5.443c1.699,-0.212 3.196,-0.399 3.196,-0.399l2,-4c0,0 0,1.832 0,4c0,3.866 -3.134,7 -7,7c-1.68,0 -3,0 -3,0Z"
           style="fill:#1cc2ef;fill-opacity:1"
           id="path20" /><clipPath
           id="_clip3"><path
             d="M20,30c0,0 0,-0.475 0,-1.158c0,-2.766 2.06,-5.099 4.804,-5.443c1.699,-0.212 3.196,-0.399 3.196,-0.399l2,-4c0,0 0,1.832 0,4c0,3.866 -3.134,7 -7,7c-1.68,0 -3,0 -3,0Z"
             id="path22" /></clipPath><g
           clip-path="url(#_clip3)"
           id="g27"><path
             d="M20,28.5c0,0 0.042,0 0.116,0c1.823,0 3.547,-0.829 4.685,-2.252c0.123,-0.153 0.199,-0.248 0.199,-0.248"
             style="fill:none;stroke:#0f80b8;stroke-width:1.5px;stroke-linecap:square;stroke-opacity:1"
             id="path25" /></g><path
           d="M12,30c0,0 0,-0.475 0,-1.158c0,-2.766 -2.06,-5.099 -4.804,-5.443c-1.699,-0.212 -3.196,-0.399 -3.196,-0.399l-2,-4c0,0 0,1.832 0,4c0,3.866 3.134,7 7,7c1.68,0 3,0 3,0Z"
           style="fill:#1cc2ef;fill-opacity:1"
           id="path29" /><clipPath
           id="_clip4"><path
             d="M12,30c0,0 0,-0.475 0,-1.158c0,-2.766 -2.06,-5.099 -4.804,-5.443c-1.699,-0.212 -3.196,-0.399 -3.196,-0.399l-2,-4c0,0 0,1.832 0,4c0,3.866 3.134,7 7,7c1.68,0 3,0 3,0Z"
             id="path31" /></clipPath><g
           clip-path="url(#_clip4)"
           id="g36"><path
             d="M12,28.5c0,0 -0.042,0 -0.116,0c-1.823,0 -3.547,-0.829 -4.685,-2.252c-0.123,-0.153 -0.199,-0.248 -0.199,-0.248"
             style="fill:none;stroke:#0f80b8;stroke-width:1.5px;stroke-linecap:square;stroke-opacity:1"
             id="path34" /></g></g><path
         d="M22.376,13.056c-1.937,-0.341 -3.231,0.919 -3.601,2.373c-0.448,1.763 -0.375,3.18 0.418,4.218c0.872,1.142 2.33,1.688 3.605,1.137c1.724,-0.745 2.202,-1.752 2.202,-3.813c0,-2.06 -0.921,-3.614 -2.624,-3.915Z"
         id="path40" /><path
         d="M10.876,13.056c-1.937,-0.341 -3.231,0.919 -3.601,2.373c-0.448,1.763 -0.375,3.18 0.418,4.218c0.872,1.142 2.33,1.688 3.605,1.137c1.724,-0.745 2.202,-1.752 2.202,-3.813c0,-2.06 -0.921,-3.614 -2.624,-3.915Z"
         id="path42" /><path
         d="m 22,16.97 c 0,-0.331 -0.131,-0.648 -0.366,-0.882 -0.234,-0.234 -0.551,-0.366 -0.882,-0.366 -10e-4,0 -0.003,0 -0.004,0 -0.331,0 -0.648,0.132 -0.882,0.366 -0.235,0.234 -0.366,0.551 -0.366,0.882 0,0.32 0,0.663 0,0.982 0,0.331 0.131,0.648 0.366,0.882 0.234,0.235 0.551,0.366 0.882,0.366 10e-4,0 0.003,0 0.004,0 0.331,0 0.648,-0.131 0.882,-0.366 C 21.869,18.6 22,18.283 22,17.952 22,17.633 22,17.29 22,16.97 Z"
         style="fill:#e5e5e5"
         id="path44"
         inkscape:connector-curvature="0" /><path
         d="m 12.499999,16.97 c 0,-0.331 -0.131,-0.648 -0.366,-0.882 -0.234,-0.234 -0.551,-0.366 -0.882,-0.366 -10e-4,0 -0.003,0 -0.004,0 -0.331,0 -0.648,0.132 -0.882,0.366 C 10.130999,16.322 10,16.639 10,16.97 c 0,0.32 0,0.663 0,0.982 0,0.331 0.130999,0.648 0.365999,0.882 0.234,0.235 0.551,0.366 0.882,0.366 10e-4,0 0.003,0 0.004,0 0.331,0 0.648,-0.131 0.882,-0.366 0.235,-0.234 0.366,-0.551 0.366,-0.882 0,-0.319 0,-0.662 0,-0.982 z"
         style="fill:#f8ffff;fill-opacity:1"
         id="path46"
         inkscape:connector-curvature="0" /></g><path
       inkscape:connector-curvature="0"
       id="path878"
       style="clip-rule:evenodd;fill:#ffffff;fill-rule:evenodd;stroke-linecap:round;stroke-linejoin:round;stroke-miterlimit:1.5"
       d="m 17.963834,2.8658542 c 0,-0.552 -0.448,-1 -1,-1 -0.611,0 -1.389,0 -2,0 -0.552,0 -1,0.448 -1,1 0,1.435 0,4.065 0,5.4999999 0,0.552 0.448,1 1,1 0.611,0 1.389,0 2,0 0.552,0 1,-0.448 1,-1 0,-1.4349999 0,-4.0649999 0,-5.4999999 z" /><path
       style="clip-rule:evenodd;fill:#ffffff;fill-rule:evenodd;stroke-width:0.71801776;stroke-linecap:round;stroke-linejoin:round;stroke-miterlimit:1.5"
       d="M 8.9824219 3.3925781 C 8.8541719 3.3712031 8.72325 3.3742969 8.59375 3.4042969 C 8.33575 3.4632969 8.1117031 3.6226562 7.9707031 3.8476562 C 7.8729568 4.0040983 7.7482474 4.2023472 7.6367188 4.3808594 L 9.3261719 7.7539062 C 9.5036329 8.1083042 9.9366177 8.2516797 10.291016 8.0742188 L 11.574219 7.4316406 C 11.928617 7.2541805 12.071992 6.8211943 11.894531 6.4667969 L 10.914062 4.5078125 C 10.37689 4.1719326 9.8049371 3.8153718 9.3476562 3.5292969 C 9.2351562 3.4587969 9.1106719 3.4139531 8.9824219 3.3925781 z "
       id="path865" /><path
       style="clip-rule:evenodd;fill:#ffffff;fill-rule:evenodd;stroke-width:0.71801776;stroke-linecap:round;stroke-linejoin:round;stroke-miterlimit:1.5"
       d="M 23.017578 3.3925781 C 22.889328 3.4139531 22.764844 3.4587969 22.652344 3.5292969 C 22.221769 3.7986645 21.6877 4.1323536 21.177734 4.4511719 L 20.167969 6.4667969 C 19.990508 6.8211943 20.133883 7.2541805 20.488281 7.4316406 L 21.773438 8.0742188 C 22.127836 8.2516797 22.558867 8.1083042 22.736328 7.7539062 L 24.396484 4.4355469 C 24.272581 4.2372296 24.136982 4.020005 24.029297 3.8476562 C 23.888297 3.6226563 23.66425 3.4632969 23.40625 3.4042969 C 23.27675 3.3742969 23.145828 3.3712031 23.017578 3.3925781 z "
       id="path867" /><g
       id="g911"><g
         id="g901"><clipPath
           id="clipPath873"><path
             id="path871"
             d="M11.488,4.868c0.592,0.37 1.362,0.282 1.856,-0.212c0.596,-0.596 1.386,-1.386 1.949,-1.949c0.39,-0.39 1.024,-0.39 1.414,0c0.563,0.563 1.353,1.353 1.949,1.949c0.494,0.494 1.264,0.582 1.856,0.212c0.661,-0.414 1.515,-0.947 2.14,-1.338c0.225,-0.141 0.496,-0.186 0.755,-0.126c0.258,0.059 0.482,0.219 0.623,0.444c0.408,0.653 0.972,1.556 1.392,2.227c0.345,0.552 1.005,0.818 1.636,0.661c0.522,-0.131 1.155,-0.289 1.699,-0.425c0.299,-0.075 0.616,-0.008 0.858,0.182c0.243,0.189 0.385,0.48 0.385,0.788l0,15.719c0,0 -1.678,0.599 -3.873,1.383c-6.549,2.339 -13.705,2.339 -20.254,0c-2.195,-0.784 -3.873,-1.383 -3.873,-1.383l0,-12c0,0 0,-2.238 0,-3.719c0,-0.308 0.142,-0.599 0.385,-0.788c0.242,-0.19 0.559,-0.257 0.858,-0.182c0.544,0.136 1.177,0.294 1.699,0.425c0.631,0.157 1.291,-0.109 1.636,-0.661c0.42,-0.671 0.984,-1.574 1.392,-2.227c0.141,-0.225 0.365,-0.385 0.623,-0.444c0.259,-0.06 0.53,-0.015 0.755,0.126c0.625,0.391 1.479,0.924 2.14,1.338Z" /></clipPath><g
           id="g879"
           clip-path="url(#_clip2)"><path
             id="path875"
             style="fill:none;stroke:#0f80b8;stroke-width:4px;stroke-linecap:square;stroke-opacity:1"
             d="M20,30c0,0 0,-0.475 0,-1.158c0,-2.766 2.06,-5.099 4.804,-5.443c1.699,-0.212 3.196,-0.399 3.196,-0.399l4,-8c0,0 0,4.091 0,8c0,1.857 -0.738,3.637 -2.05,4.95c-1.313,1.313 -3.093,2.05 -4.95,2.05c-2.632,0 -5,0 -5,0Z" /><path
             id="path877"
             style="fill:none;stroke:#0f80b8;stroke-width:4px;stroke-linecap:square;stroke-opacity:1"
             d="M12,30c0,0 0,-0.475 0,-1.158c0,-2.766 -2.06,-5.099 -4.804,-5.443c-1.699,-0.212 -3.196,-0.399 -3.196,-0.399l-4,-8c0,0 0,4.091 0,8c0,1.857 0.738,3.637 2.05,4.95c1.313,1.313 3.093,2.05 4.95,2.05c2.632,0 5,0 5,0Z" /></g><path
           id="path881"
           style="fill:#1cc2ef;fill-opacity:1"
           d="M20,30c0,0 0,-0.475 0,-1.158c0,-2.766 2.06,-5.099 4.804,-5.443c1.699,-0.212 3.196,-0.399 3.196,-0.399l2,-4c0,0 0,1.832 0,4c0,3.866 -3.134,7 -7,7c-1.68,0 -3,0 -3,0Z" /><clipPath
           id="clipPath885"><path
             id="path883"
             d="M20,30c0,0 0,-0.475 0,-1.158c0,-2.766 2.06,-5.099 4.804,-5.443c1.699,-0.212 3.196,-0.399 3.196,-0.399l2,-4c0,0 0,1.832 0,4c0,3.866 -3.134,7 -7,7c-1.68,0 -3,0 -3,0Z" /></clipPath><g
           id="g889"
           clip-path="url(#_clip3)"><path
             id="path887"
             style="fill:none;stroke:#0f80b8;stroke-width:1.5px;stroke-linecap:square;stroke-opacity:1"
             d="M20,28.5c0,0 0.042,0 0.116,0c1.823,0 3.547,-0.829 4.685,-2.252c0.123,-0.153 0.199,-0.248 0.199,-0.248" /></g><path
           id="path891"
           style="fill:#1cc2ef;fill-opacity:1"
           d="M12,30c0,0 0,-0.475 0,-1.158c0,-2.766 -2.06,-5.099 -4.804,-5.443c-1.699,-0.212 -3.196,-0.399 -3.196,-0.399l-2,-4c0,0 0,1.832 0,4c0,3.866 3.134,7 7,7c1.68,0 3,0 3,0Z" /><clipPath
           id="clipPath895"><path
             id="path893"
             d="M12,30c0,0 0,-0.475 0,-1.158c0,-2.766 -2.06,-5.099 -4.804,-5.443c-1.699,-0.212 -3.196,-0.399 -3.196,-0.399l-2,-4c0,0 0,1.832 0,4c0,3.866 3.134,7 7,7c1.68,0 3,0 3,0Z" /></clipPath><g
           id="g899"
           clip-path="url(#_clip4)"><path
             id="path897"
             style="fill:none;stroke:#0f80b8;stroke-width:1.5px;stroke-linecap:square;stroke-opacity:1"
             d="M12,28.5c0,0 -0.042,0 -0.116,0c-1.823,0 -3.547,-0.829 -4.685,-2.252c-0.123,-0.153 -0.199,-0.248 -0.199,-0.248" /></g></g><path
         id="path903"
         d="M22.376,13.056c-1.937,-0.341 -3.231,0.919 -3.601,2.373c-0.448,1.763 -0.375,3.18 0.418,4.218c0.872,1.142 2.33,1.688 3.605,1.137c1.724,-0.745 2.202,-1.752 2.202,-3.813c0,-2.06 -0.921,-3.614 -2.624,-3.915Z" /><path
         id="path905"
         d="M10.876,13.056c-1.937,-0.341 -3.231,0.919 -3.601,2.373c-0.448,1.763 -0.375,3.18 0.418,4.218c0.872,1.142 2.33,1.688 3.605,1.137c1.724,-0.745 2.202,-1.752 2.202,-3.813c0,-2.06 -0.921,-3.614 -2.624,-3.915Z" /><path
         inkscape:connector-curvature="0"
         id="path907"
         style="fill:#e5e5e5"
         d="m 22,16.97 c 0,-0.331 -0.131,-0.648 -0.366,-0.882 -0.234,-0.234 -0.551,-0.366 -0.882,-0.366 -10e-4,0 -0.003,0 -0.004,0 -0.331,0 -0.648,0.132 -0.882,0.366 -0.235,0.234 -0.366,0.551 -0.366,0.882 0,0.32 0,0.663 0,0.982 0,0.331 0.131,0.648 0.366,0.882 0.234,0.235 0.551,0.366 0.882,0.366 10e-4,0 0.003,0 0.004,0 0.331,0 0.648,-0.131 0.882,-0.366 C 21.869,18.6 22,18.283 22,17.952 22,17.633 22,17.29 22,16.97 Z" /><path
         inkscape:connector-curvature="0"
         id="path909"
         style="fill:#f8ffff;fill-opacity:1"
         d="m 12.499999,16.97 c 0,-0.331 -0.131,-0.648 -0.366,-0.882 -0.234,-0.234 -0.551,-0.366 -0.882,-0.366 -10e-4,0 -0.003,0 -0.004,0 -0.331,0 -0.648,0.132 -0.882,0.366 C 10.130999,16.322 10,16.639 10,16.97 c 0,0.32 0,0.663 0,0.982 0,0.331 0.130999,0.648 0.365999,0.882 0.234,0.235 0.551,0.366 0.882,0.366 10e-4,0 0.003,0 0.004,0 0.331,0 0.648,-0.131 0.882,-0.366 0.235,-0.234 0.366,-0.551 0.366,-0.882 0,-0.319 0,-0.662 0,-0.982 z" /></g><g
       id="g956"><g
         id="g946"><clipPath
           id="clipPath918"><path
             id="path916"
             d="M11.488,4.868c0.592,0.37 1.362,0.282 1.856,-0.212c0.596,-0.596 1.386,-1.386 1.949,-1.949c0.39,-0.39 1.024,-0.39 1.414,0c0.563,0.563 1.353,1.353 1.949,1.949c0.494,0.494 1.264,0.582 1.856,0.212c0.661,-0.414 1.515,-0.947 2.14,-1.338c0.225,-0.141 0.496,-0.186 0.755,-0.126c0.258,0.059 0.482,0.219 0.623,0.444c0.408,0.653 0.972,1.556 1.392,2.227c0.345,0.552 1.005,0.818 1.636,0.661c0.522,-0.131 1.155,-0.289 1.699,-0.425c0.299,-0.075 0.616,-0.008 0.858,0.182c0.243,0.189 0.385,0.48 0.385,0.788l0,15.719c0,0 -1.678,0.599 -3.873,1.383c-6.549,2.339 -13.705,2.339 -20.254,0c-2.195,-0.784 -3.873,-1.383 -3.873,-1.383l0,-12c0,0 0,-2.238 0,-3.719c0,-0.308 0.142,-0.599 0.385,-0.788c0.242,-0.19 0.559,-0.257 0.858,-0.182c0.544,0.136 1.177,0.294 1.699,0.425c0.631,0.157 1.291,-0.109 1.636,-0.661c0.42,-0.671 0.984,-1.574 1.392,-2.227c0.141,-0.225 0.365,-0.385 0.623,-0.444c0.259,-0.06 0.53,-0.015 0.755,0.126c0.625,0.391 1.479,0.924 2.14,1.338Z" /></clipPath><g
           id="g924"
           clip-path="url(#_clip2)"><path
             id="path920"
             style="fill:none;stroke:#0f80b8;stroke-width:4px;stroke-linecap:square;stroke-opacity:1"
             d="M20,30c0,0 0,-0.475 0,-1.158c0,-2.766 2.06,-5.099 4.804,-5.443c1.699,-0.212 3.196,-0.399 3.196,-0.399l4,-8c0,0 0,4.091 0,8c0,1.857 -0.738,3.637 -2.05,4.95c-1.313,1.313 -3.093,2.05 -4.95,2.05c-2.632,0 -5,0 -5,0Z" /><path
             id="path922"
             style="fill:none;stroke:#0f80b8;stroke-width:4px;stroke-linecap:square;stroke-opacity:1"
             d="M12,30c0,0 0,-0.475 0,-1.158c0,-2.766 -2.06,-5.099 -4.804,-5.443c-1.699,-0.212 -3.196,-0.399 -3.196,-0.399l-4,-8c0,0 0,4.091 0,8c0,1.857 0.738,3.637 2.05,4.95c1.313,1.313 3.093,2.05 4.95,2.05c2.632,0 5,0 5,0Z" /></g><path
           id="path926"
           style="fill:#1cc2ef;fill-opacity:1"
           d="M20,30c0,0 0,-0.475 0,-1.158c0,-2.766 2.06,-5.099 4.804,-5.443c1.699,-0.212 3.196,-0.399 3.196,-0.399l2,-4c0,0 0,1.832 0,4c0,3.866 -3.134,7 -7,7c-1.68,0 -3,0 -3,0Z" /><clipPath
           id="clipPath930"><path
             id="path928"
             d="M20,30c0,0 0,-0.475 0,-1.158c0,-2.766 2.06,-5.099 4.804,-5.443c1.699,-0.212 3.196,-0.399 3.196,-0.399l2,-4c0,0 0,1.832 0,4c0,3.866 -3.134,7 -7,7c-1.68,0 -3,0 -3,0Z" /></clipPath><g
           id="g934"
           clip-path="url(#_clip3)"><path
             id="path932"
             style="fill:none;stroke:#0f80b8;stroke-width:1.5px;stroke-linecap:square;stroke-opacity:1"
             d="M20,28.5c0,0 0.042,0 0.116,0c1.823,0 3.547,-0.829 4.685,-2.252c0.123,-0.153 0.199,-0.248 0.199,-0.248" /></g><path
           id="path936"
           style="fill:#1cc2ef;fill-opacity:1"
           d="M12,30c0,0 0,-0.475 0,-1.158c0,-2.766 -2.06,-5.099 -4.804,-5.443c-1.699,-0.212 -3.196,-0.399 -3.196,-0.399l-2,-4c0,0 0,1.832 0,4c0,3.866 3.134,7 7,7c1.68,0 3,0 3,0Z" /><clipPath
           id="clipPath940"><path
             id="path938"
             d="M12,30c0,0 0,-0.475 0,-1.158c0,-2.766 -2.06,-5.099 -4.804,-5.443c-1.699,-0.212 -3.196,-0.399 -3.196,-0.399l-2,-4c0,0 0,1.832 0,4c0,3.866 3.134,7 7,7c1.68,0 3,0 3,0Z" /></clipPath><g
           id="g944"
           clip-path="url(#_clip4)"><path
             id="path942"
             style="fill:none;stroke:#0f80b8;stroke-width:1.5px;stroke-linecap:square;stroke-opacity:1"
             d="M12,28.5c0,0 -0.042,0 -0.116,0c-1.823,0 -3.547,-0.829 -4.685,-2.252c-0.123,-0.153 -0.199,-0.248 -0.199,-0.248" /></g></g><path
         id="path948"
         d="M22.376,13.056c-1.937,-0.341 -3.231,0.919 -3.601,2.373c-0.448,1.763 -0.375,3.18 0.418,4.218c0.872,1.142 2.33,1.688 3.605,1.137c1.724,-0.745 2.202,-1.752 2.202,-3.813c0,-2.06 -0.921,-3.614 -2.624,-3.915Z" /><path
         id="path950"
         d="M10.876,13.056c-1.937,-0.341 -3.231,0.919 -3.601,2.373c-0.448,1.763 -0.375,3.18 0.418,4.218c0.872,1.142 2.33,1.688 3.605,1.137c1.724,-0.745 2.202,-1.752 2.202,-3.813c0,-2.06 -0.921,-3.614 -2.624,-3.915Z" /><path
         inkscape:connector-curvature="0"
         id="path952"
         style="fill:#e5e5e5"
         d="m 22,16.97 c 0,-0.331 -0.131,-0.648 -0.366,-0.882 -0.234,-0.234 -0.551,-0.366 -0.882,-0.366 -10e-4,0 -0.003,0 -0.004,0 -0.331,0 -0.648,0.132 -0.882,0.366 -0.235,0.234 -0.366,0.551 -0.366,0.882 0,0.32 0,0.663 0,0.982 0,0.331 0.131,0.648 0.366,0.882 0.234,0.235 0.551,0.366 0.882,0.366 10e-4,0 0.003,0 0.004,0 0.331,0 0.648,-0.131 0.882,-0.366 C 21.869,18.6 22,18.283 22,17.952 22,17.633 22,17.29 22,16.97 Z" /><path
         inkscape:connector-curvature="0"
         id="path954"
         style="fill:#f8ffff;fill-opacity:1"
         d="m 12.499999,16.97 c 0,-0.331 -0.131,-0.648 -0.366,-0.882 -0.234,-0.234 -0.551,-0.366 -0.882,-0.366 -10e-4,0 -0.003,0 -0.004,0 -0.331,0 -0.648,0.132 -0.882,0.366 C 10.130999,16.322 10,16.639 10,16.97 c 0,0.32 0,0.663 0,0.982 0,0.331 0.130999,0.648 0.365999,0.882 0.234,0.235 0.551,0.366 0.882,0.366 10e-4,0 0.003,0 0.004,0 0.331,0 0.648,-0.131 0.882,-0.366 0.235,-0.234 0.366,-0.551 0.366,-0.882 0,-0.319 0,-0.662 0,-0.982 z" /></g></g></svg>